<?xml version="1.0" encoding="UTF-8"?>
<svg width="500px" height="500px" viewBox="0 0 500 500" version="1.1" xmlns="http://www.w3.org/2000/svg" xmlns:xlink="http://www.w3.org/1999/xlink">
    <!-- Generator: Sketch 51.2 (57519) - http://www.bohemiancoding.com/sketch -->
    <title>Sprites</title>
    <desc>Created with Sketch.</desc>
    <defs>
        <path d="M21.0066667,19.0066667 L19.9533333,19.0066667 L19.58,18.6466667 C20.8866667,17.1266667 21.6733333,15.1533333 21.6733333,13.0066667 C21.6733333,8.22 17.7933333,4.34 13.0066667,4.34 C8.22,4.34 4.34,8.22 4.34,13.0066667 C4.34,17.7933333 8.22,21.6733333 13.0066667,21.6733333 C15.1533333,21.6733333 17.1266667,20.8866667 18.6466667,19.58 L19.0066667,19.9533333 L19.0066667,21.0066667 L25.6733333,27.66 L27.66,25.6733333 L21.0066667,19.0066667 Z M13.0066667,19.0066667 C9.68666667,19.0066667 7.00666667,16.3266667 7.00666667,13.0066667 C7.00666667,9.68666667 9.68666667,7.00666667 13.0066667,7.00666667 C16.3266667,7.00666667 19.0066667,9.68666667 19.0066667,13.0066667 C19.0066667,16.3266667 16.3266667,19.0066667 13.0066667,19.0066667 Z" id="path-1"></path>
        <path d="M16,2.66666667 C8.64,2.66666667 2.66666667,8.64 2.66666667,16 C2.66666667,23.36 8.64,29.3333333 16,29.3333333 C23.36,29.3333333 29.3333333,23.36 29.3333333,16 C29.3333333,8.64 23.36,2.66666667 16,2.66666667 Z M9.42666667,24.3733333 C10,23.1733333 13.4933333,22 16,22 C18.5066667,22 22.0133333,23.1733333 22.5733333,24.3733333 C20.76,25.8133333 18.48,26.6666667 16,26.6666667 C13.52,26.6666667 11.24,25.8133333 9.42666667,24.3733333 Z M24.48,22.44 C22.5733333,20.12 17.9466667,19.3333333 16,19.3333333 C14.0533333,19.3333333 9.42666667,20.12 7.52,22.44 C6.16,20.6533333 5.33333333,18.4266667 5.33333333,16 C5.33333333,10.12 10.12,5.33333333 16,5.33333333 C21.88,5.33333333 26.6666667,10.12 26.6666667,16 C26.6666667,18.4266667 25.84,20.6533333 24.48,22.44 Z M16,8 C13.4133333,8 11.3333333,10.08 11.3333333,12.6666667 C11.3333333,15.2533333 13.4133333,17.3333333 16,17.3333333 C18.5866667,17.3333333 20.6666667,15.2533333 20.6666667,12.6666667 C20.6666667,10.08 18.5866667,8 16,8 Z M16,14.6666667 C14.8933333,14.6666667 14,13.7733333 14,12.6666667 C14,11.56 14.8933333,10.6666667 16,10.6666667 C17.1066667,10.6666667 18,11.56 18,12.6666667 C18,13.7733333 17.1066667,14.6666667 16,14.6666667 Z" id="path-3"></path>
    </defs>
    <g id="Sprites" stroke="none" stroke-width="1" fill="none" fill-rule="evenodd">
        <g id="Group-2" transform="translate(105.500000, 6.500000)" fill="#000000">
            <rect id="Rectangle-2" x="0" y="0" width="21" height="3"></rect>
            <rect id="Rectangle-2-Copy" x="0" y="8" width="21" height="3"></rect>
            <rect id="Rectangle-2-Copy-2" x="0" y="16" width="21" height="3"></rect>
        </g>
        <g id="icon/action/search_24px">
            <mask id="mask-2" fill="white">
                <use xlink:href="#path-1"></use>
            </mask>
            <g fill-rule="nonzero"></g>
            <g id="✱-/-Color-/-Icons-/-Black-/-Active" mask="url(#mask-2)" fill="#000000" fill-opacity="0.87" fill-rule="evenodd">
                <rect id="Rectangle-13" x="0" y="0" width="32" height="32"></rect>
            </g>
        </g>
        <g id="icon/action/account_circle_24px" transform="translate(50.000000, 0.000000)">
            <mask id="mask-4" fill="white">
                <use xlink:href="#path-3"></use>
            </mask>
            <g fill-rule="nonzero"></g>
            <g id="✱-/-Color-/-Icons-/-Black-/-Active" mask="url(#mask-4)" fill="#000000" fill-opacity="0.87" fill-rule="evenodd">
                <rect id="Rectangle-13" x="0" y="0" width="32" height="32"></rect>
            </g>
        </g>
    </g>
</svg>